<?xml version="1.0" encoding="utf-8"?>
<svg xmlns="http://www.w3.org/2000/svg" id="Camada_1" data-name="Camada 1" viewBox="0 0 800 800">
  <path d="M 362.158 339.564 C 363.022 335.915 364.272 332.368 365.881 328.978 C 362.831 328.049 359.942 326.657 357.32 324.844 C 355.143 323.343 354.216 322.111 352.508 320.026 C 352.544 320.008 352.577 319.993 352.612 319.974 C 354.396 318.954 355.756 317.332 356.451 315.4 C 357.175 313.171 356.185 312.502 355.73 308.177 C 355.189 303.021 356.326 301.403 354.743 298.737 C 354.26 297.927 353.469 296.593 351.988 296.115 C 349.623 295.348 347.126 297.288 343.834 299.922 C 341.469 301.815 339.325 303.965 337.435 306.332 C 337.534 305.321 337.703 303.66 337.924 301.609 C 338.645 294.986 338.972 293.295 338.294 290.718 C 337.933 289.332 337.287 287.008 335.273 285.938 C 334.463 285.535 333.569 285.343 332.666 285.377 C 329.812 285.358 329.218 287.073 326.082 287.684 C 324.404 288.011 324.614 287.51 321.019 287.759 C 318.455 287.937 317.153 288.041 316.341 288.81 C 314.862 290.209 315.159 292.717 315.302 293.927 C 315.611 296.541 316.753 298.382 317.744 299.885 C 320.153 303.525 322.303 306.796 324.166 309.611 C 322.858 308.892 320.986 307.883 318.708 306.728 C 313.301 303.991 311.665 303.495 310.245 303.211 C 308.034 302.772 304.662 302.1 303.035 303.896 C 302.106 304.924 302.13 306.334 302.16 308.184 C 302.214 311.343 303.265 312.015 303.611 315.129 C 303.921 317.934 303.105 317.708 303.293 321.316 C 303.408 323.48 303.603 327.174 305.775 328.257 C 306.284 328.487 306.84 328.589 307.401 328.552 C 311.661 328.554 314.11 325.401 320.003 322.757 C 321.093 322.267 322.013 321.925 322.606 321.717 C 320.971 324.348 319.81 327.246 319.178 330.282 C 318.734 332.446 317.727 337.355 319.785 338.689 C 320.402 339.088 321.264 339.001 322.959 338.813 C 325.76 338.503 326.019 337.923 328.176 337.602 C 329.4 337.42 329.396 337.593 335.626 337.574 C 336.963 337.57 337.643 337.557 338.212 337.067 C 338.621 336.716 338.896 336.192 339.102 332.526 C 339.115 332.309 339.126 332.106 339.135 331.909 C 340.053 332.597 341.528 333.754 343.23 335.317 C 344.75 336.716 346.188 338.2 347.537 339.761 C 347.561 339.787 347.585 339.815 347.609 339.841 C 347.561 339.811 347.535 339.785 347.537 339.761 C 345.692 339.415 343.787 339.551 342.009 340.158 C 337.731 341.635 335.897 345.362 335.529 346.154 C 339.449 343.534 343.67 343.291 345.688 344.796 C 346.712 345.557 347.516 346.574 348.02 347.746 C 348.204 348.342 348.354 348.948 348.464 349.563 C 348.908 351.534 349.131 352.519 349.168 352.671 C 349.632 354.44 351.375 356.833 353.801 357.381 C 356.176 357.918 358.933 356.439 360.77 353.81 L 360.77 353.788 C 360.592 349.006 361.06 344.223 362.158 339.564 Z M 359.059 352.229 C 358.695 352.762 358.177 353.173 357.577 353.416 C 356.774 353.721 355.88 353.695 355.096 353.34 C 352.809 352.242 352.703 348.034 352.651 346.525 C 352.635 346.05 352.648 345.65 352.666 345.36 C 353.723 346.449 354.786 347.568 355.856 348.718 C 356.956 349.897 358.024 351.068 359.059 352.229 Z" style="fill: rgb(0, 49, 83);"/>
  <path d="M 405.82 429.814 C 405.216 424.751 405.348 419.627 406.214 414.6 C 404.243 413.788 387.726 407.282 372.826 416.378 C 359.319 424.629 356.508 439.986 356.183 441.924 C 354.357 452.852 358.563 460.17 355.639 462.015 C 354.063 463.011 350.615 462.288 342.411 454.994 C 342.788 454.691 343.133 454.351 343.442 453.978 C 344.932 452.172 344.254 451.187 345.417 446.996 C 346.805 442 348.46 440.911 347.962 437.853 C 347.812 436.919 347.563 435.388 346.362 434.399 C 344.443 432.82 341.406 433.71 337.378 434.951 C 334.487 435.847 331.702 437.06 329.075 438.57 C 329.541 437.662 330.303 436.181 331.263 434.353 C 334.362 428.458 335.286 427.003 335.602 424.359 C 335.774 422.938 336.025 420.536 334.543 418.804 C 333.939 418.132 333.175 417.623 332.324 417.327 C 329.675 416.259 328.493 417.641 325.352 417.058 C 323.67 416.746 324.049 416.359 320.616 415.271 C 318.162 414.494 316.915 414.115 315.878 414.533 C 313.987 415.291 313.344 417.734 313.034 418.912 C 312.363 421.457 312.75 423.59 313.123 425.35 C 314.028 429.621 314.829 433.454 315.529 436.755 C 314.574 435.605 313.203 433.981 311.505 432.07 C 307.481 427.538 306.141 426.481 304.924 425.695 C 303.029 424.475 300.138 422.613 297.965 423.687 C 296.722 424.302 296.229 425.623 295.581 427.356 C 294.47 430.316 295.204 431.325 294.383 434.349 C 293.643 437.071 292.965 436.564 291.817 439.988 C 291.128 442.045 289.957 445.552 291.581 447.356 C 291.971 447.756 292.454 448.055 292.984 448.226 C 296.948 449.79 300.382 447.756 306.836 447.457 C 308.031 447.403 309.008 447.421 309.638 447.444 C 307.152 449.294 305.01 451.564 303.308 454.154 C 302.1 456.005 299.364 460.202 300.789 462.199 C 301.216 462.797 302.05 463.033 303.698 463.479 C 306.416 464.218 306.871 463.774 308.995 464.265 C 310.201 464.545 310.132 464.705 315.936 466.972 C 317.181 467.457 317.818 467.696 318.528 467.449 C 319.022 467.275 319.462 466.899 320.904 463.802 C 323.841 467.137 327.315 469.961 331.182 472.15 L 331.193 472.148 L 331.185 472.153 C 328.64 472.23 326.206 473.209 324.317 474.914 C 320.075 478.862 321.162 484.78 321.24 485.162 C 323.369 482.821 326.496 480.191 330.08 480.421 C 334.336 480.694 336.54 484.828 344.798 495.141 C 354.175 506.846 356.871 508.423 359.743 508.728 C 363.641 509.144 369.088 507.349 371.024 502.695 C 372.598 498.914 371.457 494.201 368.087 490.86 C 371.728 491.277 376.696 491.286 379.147 488.291 C 382.55 484.142 377.432 478.736 378.678 470.099 C 380.252 459.172 391 450.043 401.473 447.395 C 404.507 446.637 407.643 446.37 410.76 446.606 C 408.189 441.322 406.521 435.646 405.82 429.814 Z M 363.721 499.795 C 363.507 499.836 363.29 499.866 363.072 499.882 C 360.022 500.07 357.385 497.419 347.763 484.174 C 346.535 482.487 345.445 480.973 344.404 479.628 C 348.46 482.364 352.664 484.869 356.999 487.139 C 359.466 488.471 362.084 489.502 364.796 490.214 C 365.075 490.279 365.341 490.39 365.58 490.545 C 367.741 491.945 367.747 496.789 365.922 498.563 C 365.305 499.154 364.547 499.578 363.721 499.795 Z" style="fill: rgb(0, 49, 83);"/>
  <polygon points="279.754 538.639 279.758 538.639 279.757 538.638 279.754 538.639" fill="#4A0E20" style=""/>
  <path d="M 542.38 368.238 C 541.741 362.585 541.21 357.632 537.191 353.427 C 531.818 347.802 524.611 347.742 523.855 347.746 C 520.082 347.72 516.403 348.935 513.386 351.202 C 512.964 351.527 506.33 356.818 506.818 365.427 C 507.082 370.113 509.475 376.03 514.616 378.44 C 515.679 378.938 519.485 380.72 522.967 378.763 C 525.457 377.362 527.238 374.353 526.817 371.354 C 526.49 368.989 524.751 366.332 522.889 366.269 C 521.211 366.211 520.66 368.307 518.917 368.194 C 517.31 368.09 515.866 366.18 515.558 364.389 C 515.095 361.684 517.302 359.638 517.93 359.057 C 519.348 357.767 521.185 357.028 523.099 356.974 C 527.326 356.926 530.033 360.582 530.778 361.587 C 532.81 364.331 533.087 367.142 533.338 369.725 C 533.568 372.051 533.858 375.01 532.301 378.169 C 531.426 379.917 530.159 381.439 528.598 382.615 C 523.985 386.174 516.654 386.618 511.006 383.93 C 501.341 379.328 500.535 367.412 500.466 366.139 C 499.97 357.048 505.358 349.812 509.925 346.347 L 509.96 346.321 C 513.839 342.715 518.157 337.31 519.753 329.793 C 519.786 329.632 519.816 329.487 519.842 329.351 C 519.842 329.351 519.928 328.918 519.996 328.491 C 520.015 328.366 521.841 318.105 517.486 307.79 C 512.847 296.808 501.893 287.389 491.407 286.454 C 489.889 286.317 484.02 285.793 478.515 288.528 C 477.111 289.245 475.771 290.09 474.517 291.047 C 469.213 295.129 465.748 301.152 464.884 307.79 C 463.597 317.076 467.814 324.143 469.074 326.094 C 471.465 329.697 474.642 332.708 478.367 334.906 C 480.245 336.006 482.709 337.422 486.287 337.881 C 488.953 338.299 491.682 338.04 494.222 337.128 C 500.702 334.696 503.097 328.496 503.279 328.006 C 505.585 321.739 502.833 316.257 501.73 314.061 C 499.077 308.781 494.278 305 490.534 304.496 C 488.97 304.205 487.355 304.424 485.923 305.122 C 485.154 305.546 484.472 306.113 483.916 306.793 C 482.839 308.127 482.237 309.782 482.203 311.495 C 482.172 313.165 482.638 316.372 484.741 317.42 C 486.408 318.252 487.389 316.868 489.629 317.717 C 491.114 318.315 492.292 319.491 492.888 320.976 C 493.037 321.388 493.7 323.198 492.741 324.829 C 492.249 325.615 491.513 326.217 490.647 326.549 C 489.802 326.865 488.897 326.986 488 326.904 C 486.655 326.804 485.347 326.425 484.16 325.791 C 481.873 324.738 479.885 323.133 478.367 321.126 C 475.229 316.838 475.565 312.088 475.699 310.159 C 475.918 307.294 476.793 304.517 478.259 302.044 C 479.019 300.732 480.009 299.564 481.183 298.601 C 484.739 295.766 489.157 296.008 490.519 296.084 C 498.696 296.535 505.375 304.299 508.299 310.902 C 509.239 313.024 512.611 320.636 509.473 329.386 C 506.854 336.69 500.767 341.881 494.627 343.783 C 493.724 344.062 492.804 344.283 491.872 344.448 L 491.872 344.446 C 489.988 344.71 488.085 344.762 486.19 344.595 C 482.465 344.268 480.615 343.25 476.011 342.252 C 473.854 341.797 471.675 341.457 469.484 341.236 C 459.818 340.366 451.361 346.254 450.755 346.689 C 448.728 348.138 440.527 354.211 438.944 365.379 C 438.669 367.313 437.694 375.737 443.08 383.785 C 444.366 385.706 448.243 391.317 455.771 393.686 C 460.165 395.046 464.867 395.046 469.261 393.686 C 471.073 393.117 477.607 391.068 481.085 384.79 C 482.428 382.254 483.203 379.456 483.357 376.591 C 483.357 376.591 483.68 372.632 482.688 369.273 C 482.543 368.777 482.369 368.292 482.369 368.292 C 481.921 367.09 481.36 365.931 480.689 364.833 C 479.552 362.992 478.038 361.409 476.245 360.192 C 471.678 357.21 465.259 357.342 461.453 359.995 C 460.992 360.324 460.553 360.686 460.143 361.082 C 459.158 362.013 456.695 364.344 456.29 368.095 C 456.143 370.462 456.741 372.816 458.001 374.826 C 458.504 375.703 459.249 376.417 460.143 376.887 C 460.966 377.305 461.902 377.444 462.809 377.281 C 463.045 377.234 463.277 377.164 463.498 377.073 C 465.022 376.435 465.648 374.929 465.804 374.548 C 466.11 373.818 466.512 372.844 466.09 372.043 C 465.748 371.393 465.183 371.464 464.983 370.86 C 464.685 369.951 465.674 368.9 465.874 368.688 C 466.421 368.103 467.151 367.72 467.946 367.601 C 468.771 367.499 469.605 367.672 470.317 368.095 C 472.555 369.349 472.884 372.467 472.983 373.429 C 473.144 375.148 472.873 376.881 472.195 378.468 C 472.063 378.776 470.058 383.298 465.365 384.575 C 465.339 384.582 465.228 384.612 465.074 384.649 C 462.393 385.234 459.595 384.924 457.109 383.761 C 455.026 382.763 453.248 381.229 451.953 379.319 C 448.165 374.042 449.072 367.926 449.278 366.711 C 450.43 359.932 455.305 356.051 456.706 354.934 C 456.994 354.707 457.425 354.362 458.023 353.97 C 464.1 349.99 472.578 350.555 478.699 353.483 C 481.925 355.047 484.745 357.338 486.935 360.179 C 487.747 361.375 488.453 362.637 489.048 363.954 C 489.048 363.954 489.386 364.708 489.67 365.472 C 491 369.074 491.062 373.329 491.062 373.329 C 491.062 392.584 495.606 402.767 495.606 402.767 C 498.718 410.089 505.076 417.448 515.086 429.032 C 516.115 430.221 518.659 433.134 518.523 436.943 C 518.397 440.447 516.041 443.78 513.1 445.463 C 510.491 446.953 507.796 446.955 506.077 446.823 C 497.159 446.136 482.952 439.464 468.102 423.351 C 465.025 420.012 462.138 416.504 459.452 412.842 C 458.582 411.064 457.592 409.348 456.488 407.705 C 448.817 396.279 441.055 396.798 435.058 387.687 C 430.35 380.536 429.939 372.944 429.781 369.929 C 429.605 366.644 429.768 361.795 432.418 353.392 C 436.286 341.121 442.032 331.738 446.785 324.182 C 452.271 315.463 456.122 310.536 457.142 301.825 C 457.464 299.062 457.462 296.268 457.135 293.505 C 455.448 293.615 445.516 294.185 443.554 290.092 C 443.416 289.804 442.924 288.779 443.357 288.117 C 444.197 286.833 447.803 288.034 450.246 288.517 C 451.223 288.71 459.368 289.942 465.482 286.222 C 468.964 284.104 470.051 281.847 475.5 279.653 C 475.5 279.653 476.86 279.101 478.224 278.713 C 483.307 277.278 491.008 279.006 491.175 278.28 C 491.214 278.114 490.638 277.722 489.486 276.935 C 489.128 276.693 488.931 276.576 488.399 276.208 C 487.851 275.831 487.478 275.552 487.24 275.378 C 486.657 274.945 486.107 274.571 485.007 273.823 C 482.69 272.249 480.589 270.943 480.232 270.722 C 479 269.958 477.546 269.083 475.898 268.143 C 473.776 266.937 473.572 266.898 471.279 265.635 C 471.279 265.635 463.318 261.282 461.259 260.946 C 460.828 260.877 460.384 260.821 460.384 260.821 C 460.264 260.806 460.178 260.793 460.13 260.788 C 457.226 260.435 450.437 260.061 444.542 263.818 C 440.884 266.148 437.153 270.334 434.721 269.141 C 434.363 268.977 434.066 268.704 433.874 268.362 C 432.849 266.445 435.784 262.54 438.811 260.243 C 442.755 257.252 446.491 257.258 446.435 256.236 C 446.396 255.5 444.446 255.043 440.466 254.228 C 434.355 252.977 431.299 252.351 429.72 252.169 C 415.946 250.575 407.007 249.67 399.104 255.095 L 399.1 255.101 C 398.814 255.296 390.214 261.226 381.971 264.57 C 380.456 265.185 379.695 265.492 378.556 265.843 C 372.408 267.731 369.941 266.412 366.762 268.6 C 364.527 270.137 363.327 272.457 363.739 272.985 C 364.278 273.678 367.546 271.24 369.073 272.491 C 369.642 272.974 369.876 273.75 369.666 274.469 C 368.954 276.318 364.263 274.863 362.814 276.582 C 361.751 277.845 362.199 281.113 368.185 289.6 C 373.45 289.576 378.706 290.033 383.89 290.965 C 388.793 291.855 391.704 292.775 392.003 294.447 C 392.068 295.069 391.877 295.69 391.479 296.169 C 389.935 298.051 385.865 296.907 382.409 296.199 C 377.783 295.266 373.071 294.828 368.349 294.895 C 366.743 303.129 366.32 311.551 367.098 319.906 C 367.747 320.877 368.367 321.147 368.804 321.225 C 371.143 321.633 372.635 317.156 377.569 313.286 C 379.299 311.967 381.192 310.871 383.199 310.029 C 385.252 309.083 389.088 307.569 395.052 306.965 C 400.791 306.386 412.791 305.206 416.011 311.001 C 416.167 311.285 417.536 313.793 416.54 316.075 C 413.501 323.042 395.098 315.878 383.494 322.692 C 376.917 326.553 370.723 335.967 370.556 359.339 C 367.052 362.369 363.167 364.926 358.998 366.947 C 350.784 370.919 343.639 371.711 337.14 372.376 C 332.597 372.84 328.025 372.95 323.464 372.71 C 323.901 372.131 324.259 371.497 324.527 370.823 C 325.257 368.902 325.279 366.787 324.588 364.853 C 323.735 362.672 322.544 362.784 319.444 359.733 C 315.75 356.095 315.6 354.12 312.688 353.067 C 311.798 352.747 310.34 352.22 308.893 352.79 C 306.578 353.702 305.883 356.786 305.013 360.911 C 304.391 363.874 304.099 366.899 304.142 369.925 C 303.575 369.08 302.65 367.694 301.519 365.966 C 297.87 360.396 297.047 358.88 294.888 357.32 C 293.729 356.48 291.752 355.094 289.517 355.547 C 288.638 355.75 287.824 356.171 287.148 356.77 C 284.93 358.568 285.563 360.27 283.529 362.735 C 282.44 364.054 282.284 363.532 279.666 366.009 C 277.797 367.776 276.861 368.682 276.72 369.79 C 276.465 371.811 278.288 373.561 279.168 374.403 C 281.067 376.225 283.118 376.924 284.837 377.452 C 289.01 378.735 292.751 379.895 295.975 380.887 C 294.509 381.162 292.421 381.572 289.927 382.128 C 284.012 383.447 282.435 384.103 281.158 384.79 C 279.172 385.851 276.14 387.475 276.025 389.894 C 275.958 391.278 276.874 392.352 278.074 393.762 C 280.12 396.168 281.359 396.021 283.603 398.204 C 285.623 400.172 284.85 400.519 287.289 403.185 C 288.751 404.785 291.248 407.512 293.615 406.97 C 294.152 406.823 294.648 406.548 295.057 406.165 C 298.351 403.46 298.238 399.469 301.11 393.684 C 301.643 392.612 302.134 391.765 302.461 391.228 C 302.869 394.299 303.815 397.275 305.253 400.019 C 306.284 401.974 308.625 406.405 311.061 406.128 C 311.791 406.044 312.402 405.431 313.593 404.207 C 315.559 402.191 315.388 401.576 316.852 399.96 C 317.682 399.042 317.788 399.178 322.589 395.204 C 323.618 394.353 324.135 393.911 324.263 393.173 C 324.33 392.792 324.285 392.387 323.468 391.111 C 326.998 391.196 330.394 391.174 333.643 391.066 C 333.753 391.07 333.866 391.07 333.978 391.074 C 331.741 392.118 329.077 393.983 328.278 397.153 C 327.299 401.028 329.708 404.491 330.288 405.283 C 331.198 402.76 332.96 399.148 336.501 397.346 C 343.395 393.84 349.885 400.844 364.926 402.901 C 367.256 403.22 384.111 405.522 387.472 398.83 C 388.711 396.359 387.749 393.247 386.582 391.421 C 384.594 388.305 380.501 386.589 375.836 386.958 C 381.452 385.611 386.853 383.497 391.892 380.675 C 397.649 383.211 402.749 387.031 406.807 391.837 C 410.411 396.168 413.105 401.179 414.727 406.572 C 417.579 416.04 414.56 418.273 416.932 429.907 C 418.132 435.793 419.461 441.504 423.799 446.955 C 427.58 451.711 429.408 450.531 436.639 456.438 C 442.569 461.283 449.889 467.265 449.085 472.638 C 448.527 476.386 444.046 479.633 437.425 481.61 C 437.824 480.031 437.748 478.37 437.209 476.835 C 436.39 474.639 435.197 474.732 432.15 471.631 C 428.514 467.932 428.399 465.957 425.501 464.856 C 424.618 464.521 423.169 463.973 421.711 464.516 C 419.383 465.391 418.638 468.462 417.698 472.575 C 417.027 475.527 416.687 478.546 416.681 481.573 C 416.128 480.718 415.225 479.317 414.125 477.569 C 410.567 471.94 409.768 470.411 407.637 468.815 C 406.491 467.96 404.536 466.539 402.294 466.957 C 401.413 467.146 400.59 467.553 399.905 468.142 C 397.66 469.902 398.264 471.615 396.189 474.045 C 395.078 475.347 394.931 474.823 392.271 477.257 C 390.376 478.99 389.424 479.882 389.265 480.988 C 388.977 483.005 390.773 484.783 391.639 485.642 C 393.506 487.494 395.546 488.226 397.257 488.783 C 401.408 490.134 405.129 491.353 408.336 492.399 C 406.866 492.651 404.774 493.025 402.27 493.541 C 396.334 494.764 394.747 495.394 393.458 496.055 C 391.453 497.086 388.397 498.66 388.241 501.079 C 388.154 502.461 389.051 503.55 390.227 504.977 C 392.235 507.418 393.475 507.29 395.682 509.512 C 397.673 511.513 396.893 511.847 399.288 514.552 C 400.724 516.174 403.175 518.944 405.549 518.439 C 406.09 518.303 406.591 518.034 407.004 517.657 C 410.342 515.009 410.296 511.017 413.263 505.278 C 413.811 504.217 414.318 503.377 414.651 502.846 C 415.011 505.924 415.905 508.912 417.298 511.682 C 418.298 513.653 420.566 518.119 423.009 517.885 C 423.738 517.813 424.358 517.209 425.571 516.005 C 427.567 514.019 427.411 513.406 428.899 511.81 C 429.744 510.905 429.848 511.046 434.712 507.152 C 435.756 506.316 436.28 505.883 436.421 505.146 C 436.501 504.724 436.444 504.271 435.368 502.617 C 436.711 502.342 438.118 502.002 439.58 501.577 C 440.122 501.419 440.648 501.257 441.166 501.088 C 439.961 503.035 439.546 505.365 439.998 507.607 C 440.929 511.908 444.808 513.673 445.215 513.85 C 444.914 511.37 444.899 507.76 446.961 504.77 C 453.839 494.803 479.719 503.297 484.474 495.141 C 485.089 493.987 485.529 492.748 485.772 491.466 C 485.899 490.745 486.651 486.041 483.595 482.249 C 482.95 481.448 482.19 480.75 481.336 480.174 C 485.089 478.522 487.595 475.401 487.511 472.23 C 487.433 469.248 485.087 467.122 483.927 466.076 C 481.126 463.546 478.2 462.957 476.349 462.368 C 468.661 459.912 464.327 452.685 462.123 449.129 C 459.019 444.055 457.211 438.292 456.858 432.354 C 457.263 432.729 457.971 433.381 458.859 434.178 C 474.309 448.079 489.618 461.85 507.842 461.099 C 512.52 460.904 515.285 459.841 516.318 459.384 C 516.318 459.384 516.444 459.325 516.567 459.269 C 520.437 457.476 532.938 446.089 530.969 432.623 C 530.28 427.917 528.093 424.774 525.83 421.524 C 519.71 412.727 511.346 409.268 508.55 400.168 C 508.195 399.016 508.126 398.414 508.34 397.792 C 509.798 393.511 522.339 398.503 532.45 392.396 C 538.317 388.85 540.762 383.178 541.34 381.727 C 543.337 376.71 542.843 372.339 542.38 368.238 Z M 378.877 392.419 C 378.927 393.175 378.723 393.927 378.296 394.55 C 375.167 399.1 361.567 395.44 355.07 393.643 C 351.581 392.677 348.709 391.694 346.669 390.945 C 351.34 390.717 356.233 390.28 361.32 389.567 C 364.555 389.115 367.669 388.58 370.658 387.984 L 370.658 387.978 C 370.779 387.954 370.953 387.923 371.16 387.9 C 374.53 387.514 378.615 389.808 378.877 392.419 Z M 423.593 270.116 C 423.217 270.787 419.544 269.605 417.815 269.044 C 413.787 267.74 412.969 266.807 410.028 266.12 C 409.343 265.962 408.618 265.795 407.851 265.676 C 408.115 265.858 408.338 266.088 408.516 266.356 C 408.871 266.943 409.029 267.627 408.964 268.312 C 408.897 268.907 408.663 269.468 408.286 269.936 C 407.292 271.199 405.627 271.311 404.979 271.357 C 404.265 271.404 401.48 271.595 400.533 269.754 C 400.165 268.964 400.148 268.052 400.486 267.248 C 398.071 269.018 396.793 271.536 393.562 271.809 C 390.199 272.091 387.069 269.745 387.241 268.86 C 387.409 267.98 389.997 268.806 393.157 266.934 C 395.128 265.765 395.215 264.745 397.129 263.417 C 399.108 262.098 401.391 261.304 403.762 261.104 C 410.145 260.372 415.154 263.452 418.433 265.518 C 421.228 267.281 423.901 269.566 423.593 270.116 Z M 473.191 484.531 C 474.393 483.89 475.604 483.258 476.799 482.598 C 477.977 481.946 478.372 481.707 478.722 481.705 C 478.792 481.705 478.863 481.714 478.93 481.729 C 480.204 482.021 481.354 486.015 479.814 488.828 C 479.541 489.318 479.199 489.764 478.794 490.149 C 477.336 491.553 475.515 491.812 474.595 491.927 C 470.274 492.477 465.746 492.46 463.632 492.497 C 462.107 492.523 459.868 492.609 457.131 492.906 C 467.751 487.505 471.742 485.302 473.191 484.531 Z" style="fill: rgb(0, 49, 83);"/>
</svg>