<?xml version="1.0" encoding="utf-8"?>
<svg xmlns="http://www.w3.org/2000/svg" id="Camada_1" data-name="Camada 1" viewBox="0 0 800 800">
  <path d="M 382.254 265.716 C 382.548 264.474 382.974 263.267 383.521 262.114 C 382.484 261.798 381.501 261.323 380.608 260.707 C 379.867 260.196 379.552 259.777 378.971 259.067 C 378.983 259.061 378.994 259.056 379.006 259.049 C 379.613 258.702 380.076 258.15 380.313 257.493 C 380.559 256.734 380.222 256.507 380.067 255.035 C 379.883 253.28 380.27 252.73 379.731 251.823 C 379.567 251.547 379.298 251.093 378.794 250.93 C 377.989 250.669 377.14 251.33 376.019 252.226 C 375.215 252.87 374.484 253.602 373.842 254.407 C 373.875 254.063 373.933 253.498 374.008 252.8 C 374.254 250.546 374.365 249.97 374.134 249.094 C 374.011 248.622 373.792 247.832 373.106 247.467 C 372.83 247.33 372.526 247.264 372.219 247.276 C 371.247 247.27 371.046 247.854 369.978 248.061 C 369.407 248.173 369.479 248.003 368.256 248.087 C 367.383 248.148 366.94 248.183 366.664 248.444 C 366.161 248.921 366.261 249.774 366.31 250.186 C 366.415 251.075 366.804 251.702 367.141 252.214 C 367.961 253.452 368.693 254.565 369.326 255.523 C 368.881 255.278 368.245 254.935 367.469 254.542 C 365.629 253.61 365.072 253.442 364.589 253.345 C 363.837 253.196 362.689 252.967 362.136 253.578 C 361.819 253.928 361.828 254.408 361.838 255.037 C 361.857 256.113 362.214 256.341 362.332 257.401 C 362.437 258.355 362.16 258.279 362.223 259.506 C 362.263 260.242 362.329 261.499 363.068 261.868 C 363.241 261.946 363.431 261.981 363.622 261.968 C 365.071 261.969 365.905 260.896 367.91 259.996 C 368.281 259.83 368.594 259.713 368.796 259.642 C 368.239 260.538 367.844 261.524 367.629 262.557 C 367.478 263.293 367.135 264.964 367.835 265.418 C 368.046 265.554 368.338 265.524 368.916 265.46 C 369.868 265.355 369.957 265.157 370.691 265.048 C 371.108 264.986 371.106 265.045 373.226 265.039 C 373.681 265.037 373.913 265.032 374.106 264.866 C 374.246 264.747 374.339 264.568 374.409 263.321 C 374.413 263.247 374.417 263.178 374.42 263.111 C 374.733 263.345 375.234 263.739 375.813 264.27 C 376.331 264.747 376.821 265.252 377.279 265.783 C 377.287 265.792 377.296 265.801 377.304 265.81 C 377.287 265.799 377.279 265.791 377.279 265.783 C 376.651 265.664 376.003 265.711 375.398 265.917 C 373.942 266.421 373.318 267.688 373.193 267.958 C 374.527 267.067 375.963 266.984 376.65 267.496 C 376.998 267.755 377.272 268.101 377.444 268.5 C 377.506 268.703 377.557 268.909 377.595 269.118 C 377.746 269.789 377.822 270.124 377.834 270.176 C 377.992 270.778 378.586 271.592 379.41 271.779 C 380.219 271.961 381.157 271.458 381.782 270.563 L 381.782 270.556 C 381.721 268.929 381.881 267.301 382.254 265.716 Z M 381.2 270.025 C 381.076 270.206 380.9 270.347 380.696 270.43 C 380.422 270.533 380.118 270.524 379.851 270.403 C 379.073 270.03 379.037 268.597 379.019 268.084 C 379.014 267.923 379.019 267.787 379.025 267.688 C 379.384 268.058 379.746 268.439 380.11 268.831 C 380.485 269.232 380.847 269.631 381.2 270.025 Z" style="fill: rgb(41, 9, 22);"/>
  <path d="M 397.112 296.426 C 396.907 294.703 396.951 292.96 397.246 291.249 C 396.576 290.973 390.955 288.759 385.885 291.855 C 381.288 294.662 380.332 299.888 380.221 300.548 C 379.6 304.266 381.031 306.756 380.036 307.384 C 379.5 307.724 378.326 307.477 375.535 304.995 C 375.663 304.892 375.78 304.777 375.886 304.649 C 376.393 304.034 376.162 303.7 376.558 302.273 C 377.03 300.573 377.593 300.203 377.424 299.162 C 377.373 298.844 377.288 298.324 376.879 297.987 C 376.226 297.449 375.193 297.753 373.822 298.175 C 372.839 298.48 371.891 298.893 370.997 299.406 C 371.155 299.097 371.415 298.593 371.741 297.971 C 372.796 295.965 373.11 295.47 373.218 294.57 C 373.277 294.087 373.362 293.269 372.858 292.68 C 372.652 292.452 372.392 292.278 372.102 292.177 C 371.201 291.814 370.799 292.284 369.73 292.086 C 369.158 291.979 369.286 291.848 368.118 291.478 C 367.283 291.213 366.859 291.085 366.506 291.227 C 365.863 291.485 365.643 292.316 365.538 292.717 C 365.31 293.583 365.442 294.309 365.568 294.908 C 365.877 296.361 366.149 297.665 366.387 298.789 C 366.062 298.397 365.596 297.845 365.018 297.195 C 363.649 295.652 363.193 295.292 362.778 295.025 C 362.134 294.61 361.15 293.976 360.411 294.341 C 359.987 294.551 359.82 295.001 359.599 295.59 C 359.221 296.598 359.471 296.941 359.191 297.97 C 358.939 298.896 358.709 298.723 358.318 299.889 C 358.084 300.589 357.686 301.782 358.238 302.396 C 358.371 302.532 358.535 302.634 358.715 302.692 C 360.065 303.224 361.233 302.532 363.429 302.43 C 363.836 302.412 364.169 302.418 364.382 302.426 C 363.537 303.055 362.808 303.828 362.229 304.709 C 361.818 305.339 360.887 306.768 361.371 307.447 C 361.517 307.65 361.801 307.731 362.362 307.883 C 363.286 308.134 363.441 307.983 364.164 308.15 C 364.574 308.245 364.551 308.299 366.526 309.071 C 366.95 309.236 367.166 309.317 367.408 309.233 C 367.576 309.174 367.726 309.046 368.217 307.992 C 369.215 309.127 370.397 310.088 371.714 310.833 L 371.718 310.832 L 371.715 310.834 C 370.848 310.86 370.021 311.193 369.378 311.773 C 367.934 313.117 368.304 315.131 368.331 315.261 C 369.055 314.464 370.119 313.569 371.338 313.647 C 372.787 313.74 373.537 315.147 376.347 318.657 C 379.538 322.64 380.456 323.177 381.433 323.28 C 382.759 323.422 384.613 322.811 385.272 321.227 C 385.808 319.94 385.419 318.337 384.272 317.2 C 385.511 317.342 387.202 317.345 388.036 316.326 C 389.194 314.914 387.452 313.074 387.876 310.135 C 388.412 306.417 392.069 303.31 395.633 302.409 C 396.666 302.151 397.732 302.06 398.793 302.141 C 397.918 300.342 397.351 298.411 397.112 296.426 Z M 382.786 320.24 C 382.714 320.255 382.64 320.265 382.566 320.27 C 381.528 320.334 380.631 319.432 377.356 314.925 C 376.938 314.35 376.568 313.835 376.213 313.378 C 377.593 314.309 379.024 315.161 380.499 315.933 C 381.338 316.387 382.229 316.738 383.152 316.98 C 383.248 317.002 383.338 317.04 383.419 317.093 C 384.154 317.569 384.157 319.218 383.535 319.821 C 383.326 320.022 383.067 320.166 382.786 320.24 Z" style="fill: rgb(41, 9, 22);"/>
  <polygon points="279.754 538.639 279.758 538.639 279.757 538.638 279.754 538.639" fill="#4A0E20" style=""/>
  <path d="M 443.582 275.473 C 443.364 273.55 443.184 271.864 441.816 270.433 C 439.988 268.519 437.535 268.498 437.278 268.5 C 435.995 268.491 434.742 268.904 433.715 269.676 C 433.572 269.787 431.315 271.587 431.481 274.517 C 431.571 276.111 432.384 278.124 434.134 278.944 C 434.496 279.114 435.791 279.721 436.976 279.055 C 437.824 278.578 438.429 277.554 438.286 276.533 C 438.175 275.728 437.583 274.825 436.95 274.803 C 436.379 274.783 436.191 275.497 435.597 275.458 C 435.051 275.422 434.56 274.772 434.455 274.163 C 434.297 273.243 435.048 272.546 435.262 272.349 C 435.744 271.91 436.369 271.658 437.021 271.64 C 438.459 271.624 439.38 272.868 439.634 273.21 C 440.325 274.144 440.419 275.1 440.505 275.98 C 440.583 276.771 440.682 277.777 440.152 278.852 C 439.855 279.447 439.423 279.965 438.892 280.365 C 437.323 281.576 434.827 281.728 432.906 280.812 C 429.617 279.246 429.343 275.192 429.319 274.758 C 429.15 271.665 430.984 269.203 432.538 268.024 L 432.55 268.015 C 433.87 266.788 435.339 264.948 435.882 262.391 C 435.893 262.336 435.903 262.287 435.913 262.24 C 435.913 262.24 435.942 262.092 435.965 261.947 C 435.971 261.905 436.592 258.414 435.111 254.903 C 433.532 251.166 429.805 247.961 426.237 247.643 C 425.719 247.596 423.723 247.418 421.849 248.349 C 421.372 248.592 420.915 248.88 420.489 249.206 C 418.684 250.595 417.505 252.644 417.211 254.903 C 416.773 258.063 418.208 260.468 418.637 261.132 C 419.451 262.358 420.531 263.382 421.799 264.13 C 422.438 264.505 423.276 264.986 424.494 265.143 C 425.401 265.285 426.33 265.197 427.194 264.887 C 429.399 264.059 430.214 261.949 430.276 261.783 C 431.061 259.649 430.125 257.785 429.749 257.037 C 428.847 255.241 427.214 253.954 425.939 253.782 C 425.407 253.684 424.857 253.758 424.37 253.995 C 424.109 254.139 423.876 254.333 423.688 254.565 C 423.321 255.018 423.116 255.581 423.104 256.164 C 423.094 256.732 423.252 257.824 423.968 258.18 C 424.536 258.463 424.869 257.992 425.631 258.282 C 426.137 258.485 426.538 258.885 426.741 259.39 C 426.791 259.53 427.017 260.146 426.69 260.701 C 426.523 260.969 426.273 261.174 425.978 261.286 C 425.691 261.394 425.382 261.435 425.077 261.407 C 424.619 261.374 424.174 261.244 423.77 261.029 C 422.992 260.671 422.316 260.125 421.799 259.441 C 420.731 257.982 420.846 256.366 420.891 255.709 C 420.966 254.735 421.263 253.79 421.763 252.948 C 422.021 252.502 422.358 252.104 422.758 251.777 C 423.967 250.811 425.47 250.894 425.934 250.92 C 428.717 251.073 430.99 253.715 431.985 255.962 C 432.304 256.684 433.452 259.275 432.384 262.252 C 431.493 264.738 429.422 266.504 427.332 267.151 C 427.025 267.246 426.712 267.322 426.395 267.377 L 426.395 267.376 C 425.754 267.467 425.106 267.484 424.461 267.428 C 423.194 267.316 422.564 266.97 420.997 266.63 C 420.263 266.475 419.522 266.36 418.776 266.285 C 415.487 265.988 412.609 267.992 412.403 268.14 C 411.713 268.633 408.923 270.699 408.384 274.5 C 408.29 275.158 407.958 278.025 409.791 280.763 C 410.229 281.417 411.548 283.326 414.11 284.132 C 415.605 284.596 417.205 284.596 418.7 284.132 C 419.317 283.939 421.54 283.241 422.724 281.105 C 423.181 280.242 423.445 279.29 423.497 278.316 C 423.497 278.316 423.607 276.968 423.269 275.825 C 423.22 275.656 423.161 275.491 423.161 275.491 C 423.009 275.082 422.818 274.688 422.589 274.314 C 422.202 273.688 421.687 273.15 421.077 272.735 C 419.523 271.72 417.339 271.765 416.043 272.668 C 415.887 272.78 415.737 272.903 415.598 273.038 C 415.262 273.355 414.424 274.147 414.287 275.424 C 414.236 276.23 414.44 277.031 414.869 277.715 C 415.04 278.013 415.294 278.256 415.598 278.416 C 415.878 278.558 416.196 278.606 416.505 278.55 C 416.585 278.534 416.664 278.511 416.739 278.479 C 417.258 278.263 417.471 277.75 417.524 277.62 C 417.628 277.372 417.765 277.041 417.621 276.768 C 417.505 276.547 417.313 276.571 417.245 276.365 C 417.143 276.056 417.48 275.699 417.548 275.626 C 417.734 275.427 417.982 275.297 418.253 275.256 C 418.534 275.222 418.817 275.28 419.06 275.424 C 419.821 275.851 419.933 276.912 419.967 277.24 C 420.022 277.825 419.93 278.414 419.699 278.954 C 419.654 279.059 418.972 280.598 417.375 281.032 C 417.366 281.035 417.328 281.045 417.275 281.057 C 416.363 281.256 415.411 281.151 414.566 280.755 C 413.856 280.415 413.252 279.894 412.811 279.244 C 411.522 277.448 411.831 275.367 411.9 274.953 C 412.293 272.647 413.952 271.326 414.428 270.946 C 414.527 270.868 414.672 270.751 414.876 270.618 C 416.944 269.263 419.829 269.456 421.912 270.452 C 423.01 270.984 423.969 271.764 424.714 272.731 C 424.991 273.138 425.231 273.567 425.434 274.015 C 425.434 274.015 425.549 274.272 425.645 274.532 C 426.098 275.757 426.119 277.205 426.119 277.205 C 426.119 283.758 427.665 287.223 427.665 287.223 C 428.724 289.714 430.888 292.218 434.294 296.16 C 434.644 296.565 435.51 297.556 435.464 298.853 C 435.421 300.045 434.619 301.179 433.619 301.751 C 432.73 302.259 431.813 302.259 431.229 302.214 C 428.194 301.981 423.359 299.71 418.306 294.227 C 417.259 293.091 416.277 291.898 415.363 290.651 C 415.067 290.046 414.729 289.462 414.354 288.903 C 411.743 285.015 409.102 285.192 407.062 282.091 C 405.459 279.658 405.32 277.074 405.266 276.048 C 405.206 274.931 405.261 273.281 406.163 270.421 C 407.479 266.246 409.435 263.052 411.052 260.481 C 412.919 257.514 414.229 255.838 414.577 252.874 C 414.686 251.933 414.686 250.982 414.574 250.042 C 414 250.08 410.621 250.274 409.953 248.881 C 409.906 248.783 409.738 248.434 409.886 248.209 C 410.172 247.772 411.399 248.18 412.23 248.345 C 412.562 248.411 415.334 248.83 417.414 247.564 C 418.6 246.843 418.969 246.075 420.823 245.329 C 420.823 245.329 421.286 245.141 421.75 245.009 C 423.48 244.52 426.101 245.109 426.157 244.861 C 426.17 244.805 425.975 244.672 425.583 244.404 C 425.461 244.321 425.394 244.281 425.213 244.156 C 425.027 244.028 424.899 243.933 424.818 243.874 C 424.62 243.727 424.433 243.599 424.059 243.345 C 423.27 242.809 422.555 242.364 422.434 242.289 C 422.015 242.03 421.52 241.732 420.959 241.412 C 420.237 241.001 420.168 240.988 419.387 240.558 C 419.387 240.558 416.678 239.077 415.977 238.963 C 415.83 238.939 415.68 238.92 415.68 238.92 C 415.639 238.915 415.61 238.911 415.593 238.909 C 414.605 238.789 412.295 238.661 410.289 239.94 C 409.044 240.733 407.774 242.158 406.946 241.752 C 406.825 241.696 406.724 241.603 406.658 241.487 C 406.31 240.834 407.308 239.506 408.339 238.724 C 409.681 237.705 410.952 237.708 410.933 237.36 C 410.919 237.109 410.256 236.954 408.902 236.677 C 406.822 236.251 405.782 236.038 405.245 235.976 C 400.558 235.433 397.516 235.126 394.827 236.972 L 394.825 236.974 C 394.728 237.04 391.802 239.058 388.997 240.196 C 388.481 240.405 388.223 240.51 387.835 240.629 C 385.743 241.272 384.903 240.823 383.821 241.567 C 383.061 242.091 382.652 242.88 382.793 243.06 C 382.976 243.295 384.088 242.466 384.608 242.892 C 384.801 243.056 384.881 243.319 384.81 243.564 C 384.567 244.194 382.971 243.699 382.477 244.284 C 382.116 244.713 382.268 245.826 384.306 248.713 C 386.097 248.706 387.885 248.861 389.65 249.178 C 391.319 249.48 392.309 249.794 392.41 250.363 C 392.433 250.574 392.368 250.786 392.232 250.949 C 391.706 251.589 390.322 251.2 389.146 250.959 C 387.572 250.641 385.968 250.492 384.362 250.515 C 383.815 253.317 383.671 256.184 383.936 259.026 C 384.157 259.357 384.367 259.449 384.516 259.475 C 385.312 259.614 385.82 258.091 387.498 256.773 C 388.088 256.325 388.731 255.952 389.415 255.665 C 390.113 255.343 391.418 254.828 393.448 254.622 C 395.401 254.426 399.485 254.024 400.58 255.996 C 400.633 256.092 401.099 256.946 400.76 257.723 C 399.726 260.093 393.463 257.656 389.515 259.974 C 387.277 261.288 385.169 264.492 385.112 272.445 C 383.92 273.476 382.598 274.346 381.179 275.034 C 378.384 276.385 375.953 276.655 373.742 276.881 C 372.195 277.039 370.639 277.077 369.087 276.995 C 369.236 276.798 369.358 276.582 369.449 276.352 C 369.698 275.699 369.705 274.979 369.47 274.321 C 369.18 273.579 368.775 273.617 367.72 272.579 C 366.463 271.341 366.412 270.669 365.42 270.31 C 365.117 270.202 364.621 270.022 364.129 270.217 C 363.342 270.526 363.105 271.576 362.809 272.979 C 362.597 273.988 362.497 275.017 362.512 276.047 C 362.319 275.759 362.005 275.288 361.62 274.7 C 360.378 272.805 360.098 272.289 359.363 271.758 C 358.969 271.472 358.296 271.001 357.536 271.154 C 357.237 271.224 356.96 271.367 356.73 271.571 C 355.975 272.182 356.19 272.762 355.498 273.6 C 355.128 274.049 355.075 273.871 354.184 274.715 C 353.548 275.316 353.229 275.624 353.181 276.001 C 353.094 276.689 353.715 277.284 354.014 277.571 C 354.66 278.191 355.358 278.429 355.943 278.608 C 357.363 279.045 358.636 279.44 359.734 279.777 C 359.234 279.871 358.524 280.01 357.675 280.2 C 355.662 280.649 355.126 280.872 354.691 281.105 C 354.015 281.466 352.984 282.019 352.945 282.843 C 352.922 283.313 353.233 283.679 353.641 284.158 C 354.338 284.977 354.76 284.928 355.523 285.67 C 356.211 286.34 355.948 286.458 356.777 287.365 C 357.275 287.91 358.125 288.837 358.93 288.653 C 359.113 288.603 359.282 288.51 359.421 288.379 C 360.542 287.459 360.504 286.1 361.481 284.132 C 361.662 283.767 361.829 283.479 361.94 283.296 C 362.079 284.342 362.401 285.354 362.891 286.288 C 363.241 286.953 364.038 288.461 364.867 288.366 C 365.115 288.338 365.323 288.129 365.728 287.713 C 366.398 287.026 366.339 286.817 366.838 286.268 C 367.12 285.955 367.156 286.002 368.789 284.649 C 369.14 284.359 369.316 284.21 369.36 283.958 C 369.382 283.828 369.367 283.691 369.089 283.256 C 370.29 283.285 371.445 283.278 372.551 283.241 C 372.588 283.242 372.627 283.242 372.666 283.244 C 371.904 283.6 370.998 284.234 370.726 285.313 C 370.393 286.631 371.212 287.809 371.409 288.079 C 371.719 287.221 372.319 285.991 373.524 285.378 C 375.869 284.185 378.078 286.568 383.196 287.268 C 383.99 287.377 389.725 288.16 390.868 285.883 C 391.29 285.042 390.963 283.983 390.566 283.362 C 389.889 282.301 388.496 281.718 386.909 281.843 C 388.82 281.384 390.658 280.666 392.373 279.705 C 394.332 280.568 396.067 281.868 397.448 283.504 C 398.675 284.977 399.591 286.682 400.143 288.517 C 401.114 291.739 400.086 292.499 400.893 296.458 C 401.302 298.461 401.755 300.405 403.23 302.259 C 404.517 303.878 405.139 303.476 407.599 305.487 C 409.617 307.135 412.109 309.171 411.835 310.999 C 411.645 312.275 410.12 313.38 407.867 314.052 C 408.003 313.515 407.977 312.95 407.794 312.427 C 407.515 311.68 407.109 311.711 406.072 310.657 C 404.835 309.397 404.795 308.725 403.81 308.351 C 403.509 308.237 403.016 308.05 402.52 308.235 C 401.728 308.533 401.474 309.578 401.155 310.977 C 400.926 311.982 400.81 313.009 400.808 314.04 C 400.62 313.749 400.313 313.272 399.938 312.677 C 398.728 310.762 398.456 310.241 397.731 309.698 C 397.341 309.407 396.675 308.924 395.913 309.066 C 395.612 309.13 395.332 309.268 395.1 309.469 C 394.335 310.068 394.541 310.651 393.835 311.478 C 393.457 311.921 393.407 311.743 392.501 312.571 C 391.857 313.16 391.532 313.464 391.479 313.841 C 391.381 314.527 391.992 315.132 392.287 315.424 C 392.922 316.054 393.616 316.303 394.199 316.493 C 395.611 316.952 396.877 317.368 397.969 317.723 C 397.468 317.809 396.756 317.936 395.904 318.112 C 393.884 318.529 393.344 318.743 392.906 318.968 C 392.223 319.318 391.184 319.854 391.131 320.677 C 391.101 321.147 391.406 321.518 391.806 322.004 C 392.489 322.834 392.912 322.791 393.662 323.547 C 394.34 324.228 394.074 324.342 394.89 325.262 C 395.378 325.814 396.212 326.756 397.02 326.585 C 397.204 326.538 397.374 326.447 397.515 326.319 C 398.651 325.417 398.635 324.059 399.645 322.106 C 399.831 321.745 400.004 321.459 400.118 321.279 C 400.24 322.326 400.544 323.343 401.018 324.285 C 401.358 324.956 402.13 326.476 402.962 326.396 C 403.21 326.372 403.42 326.166 403.833 325.756 C 404.513 325.08 404.46 324.872 404.966 324.329 C 405.253 324.021 405.288 324.068 406.944 322.744 C 407.299 322.46 407.477 322.312 407.525 322.062 C 407.553 321.917 407.533 321.764 407.167 321.2 C 407.624 321.107 408.103 320.991 408.601 320.847 C 408.785 320.793 408.964 320.737 409.14 320.681 C 408.73 321.343 408.589 322.136 408.743 322.899 C 409.059 324.362 410.38 324.963 410.518 325.023 C 410.415 324.179 410.411 322.951 411.112 321.933 C 413.452 318.542 422.259 321.432 423.877 318.657 C 424.086 318.264 424.236 317.842 424.319 317.406 C 424.363 317.161 424.618 315.56 423.578 314.269 C 423.358 313.997 423.1 313.76 422.81 313.564 C 424.086 313.001 424.939 311.939 424.91 310.86 C 424.884 309.846 424.086 309.122 423.691 308.766 C 422.738 307.905 421.742 307.705 421.112 307.504 C 418.497 306.669 417.022 304.209 416.271 302.999 C 415.216 301.272 414.6 299.312 414.48 297.291 C 414.618 297.419 414.859 297.64 415.161 297.912 C 420.418 302.642 425.627 307.328 431.829 307.073 C 433.421 307.006 434.362 306.644 434.713 306.489 C 434.713 306.489 434.756 306.469 434.798 306.449 C 436.115 305.839 440.369 301.964 439.699 297.382 C 439.464 295.781 438.72 294.712 437.95 293.606 C 435.867 290.612 433.021 289.435 432.07 286.338 C 431.949 285.947 431.926 285.741 431.999 285.53 C 432.494 284.073 436.762 285.772 440.203 283.693 C 442.199 282.487 443.032 280.557 443.228 280.063 C 443.908 278.356 443.739 276.869 443.582 275.473 Z M 387.944 283.702 C 387.96 283.958 387.892 284.214 387.747 284.427 C 386.681 285.975 382.053 284.729 379.843 284.118 C 378.655 283.789 377.678 283.454 376.984 283.2 C 378.574 283.122 380.238 282.974 381.97 282.731 C 383.07 282.577 384.13 282.395 385.147 282.193 L 385.147 282.19 C 385.188 282.182 385.247 282.172 385.318 282.164 C 386.465 282.033 387.854 282.813 387.944 283.702 Z M 403.161 242.083 C 403.032 242.311 401.782 241.909 401.194 241.718 C 399.823 241.274 399.545 240.957 398.544 240.724 C 398.311 240.67 398.064 240.613 397.803 240.572 C 397.893 240.635 397.969 240.713 398.03 240.804 C 398.151 241.004 398.204 241.236 398.183 241.469 C 398.159 241.672 398.08 241.863 397.952 242.022 C 397.613 242.452 397.046 242.49 396.826 242.506 C 396.583 242.522 395.635 242.587 395.313 241.96 C 395.188 241.691 395.182 241.38 395.297 241.107 C 394.475 241.71 394.041 242.566 392.941 242.659 C 391.797 242.755 390.732 241.957 390.79 241.656 C 390.847 241.356 391.728 241.637 392.803 241 C 393.474 240.603 393.503 240.255 394.155 239.804 C 394.828 239.355 395.605 239.084 396.412 239.017 C 398.584 238.767 400.288 239.815 401.404 240.518 C 402.355 241.118 403.265 241.896 403.161 242.083 Z M 420.038 315.046 C 420.447 314.828 420.859 314.613 421.266 314.389 C 421.667 314.166 421.801 314.085 421.92 314.084 C 421.944 314.084 421.968 314.087 421.991 314.093 C 422.424 314.192 422.815 315.551 422.292 316.508 C 422.199 316.675 422.082 316.827 421.945 316.958 C 421.448 317.435 420.829 317.524 420.515 317.563 C 419.045 317.75 417.504 317.744 416.785 317.757 C 416.266 317.765 415.504 317.795 414.573 317.896 C 418.187 316.058 419.545 315.308 420.038 315.046 Z" style="fill: rgb(41, 9, 22);"/>
</svg>